<svg version="1.1" id="Layer_1" xmlns="http://www.w3.org/2000/svg" xmlns:xlink="http://www.w3.org/1999/xlink" x="0px" y="0px"
	 width="100%" viewBox="0 0 256 256" enable-background="new 0 0 256 256" xml:space="preserve">
<path fill="#000000" opacity="1.000000" stroke="none" 
	d="
M156.000000,1.000000 
	C189.599594,1.000000 223.199173,1.000000 257.000000,1.000000 
	C257.000000,40.354000 257.000000,79.708344 256.665131,119.868767 
	C255.498245,116.782524 254.666245,112.890205 253.905472,108.593346 
	C253.647858,106.616295 253.478104,104.989494 252.963257,103.480423 
	C250.395950,95.955421 247.737976,88.461357 245.055054,80.600464 
	C241.887848,73.948082 236.838196,68.569313 230.387634,67.510483 
	C219.483414,65.720589 208.228439,66.067581 196.999496,65.510071 
	C196.999496,74.570045 196.758469,82.398155 197.056366,90.205711 
	C197.495865,101.725182 193.364731,111.386139 185.635818,120.021675 
	C182.533859,122.401688 179.747543,124.652618 176.585815,126.955063 
	C169.903854,128.672714 163.636734,131.572250 157.283401,131.775406 
	C137.667145,132.402603 118.002838,132.476746 98.386345,131.851456 
	C82.205437,131.335678 67.796356,145.177856 67.140259,161.578873 
	C66.535675,176.692078 67.111168,191.852493 67.088898,207.454987 
	C67.006569,211.737671 67.017471,215.557571 66.994789,219.377258 
	C66.939690,228.657242 70.351700,236.400024 77.555420,242.788086 
	C82.581505,245.594498 87.302452,248.219620 92.409668,250.923111 
	C97.578156,252.337326 102.378464,253.614182 107.123985,255.069672 
	C107.875938,255.300308 108.380867,256.336334 109.000000,257.000000 
	C73.069809,257.000000 37.139626,257.000000 1.000000,257.000000 
	C1.000000,217.979355 1.000000,178.958344 1.387258,139.278061 
	C2.238901,140.742325 2.703285,142.865845 3.243563,145.379608 
	C3.543308,146.702377 3.726999,147.646713 3.997326,148.565582 
	C6.306726,156.415497 8.631837,164.260788 10.979757,172.461990 
	C16.018198,182.707336 23.376701,189.345673 35.236897,190.450256 
	C43.884945,190.786560 52.268223,190.786560 60.826511,190.786560 
	C60.826511,180.174408 60.826511,170.082214 60.887383,159.574097 
	C61.738140,155.868271 62.092876,152.394180 63.393745,149.320541 
	C68.828308,136.479919 78.702911,128.694855 92.504784,125.064705 
	C98.976044,124.966675 104.983040,124.905807 111.454880,124.913437 
	C121.906830,124.987679 131.896088,125.123940 141.880341,124.958649 
	C150.145157,124.821823 158.462021,124.826836 166.651611,123.873680 
	C178.017441,122.550835 189.819702,109.318054 189.923828,97.894287 
	C190.121033,76.260925 189.894745,54.623703 189.900970,32.577675 
	C187.655334,26.747517 185.353149,21.327766 182.903229,15.606894 
	C175.866318,8.367964 167.873032,3.686332 157.889420,2.892314 
	C157.213730,2.838576 156.627716,1.657023 156.000000,1.000000 
z"/>
<path fill="#3C79AA" opacity="1.000000" stroke="none" 
	d="
M92.040512,125.101868 
	C78.702911,128.694855 68.828308,136.479919 63.393745,149.320541 
	C62.092876,152.394180 61.738140,155.868271 60.560383,159.644638 
	C54.789711,166.072708 49.275742,171.902344 44.071884,177.996750 
	C40.798279,181.830582 37.989460,186.061279 34.972130,190.113937 
	C23.376701,189.345673 16.018198,182.707336 11.145725,172.163177 
	C21.604589,159.379944 31.925894,147.250839 42.245182,135.120026 
	C57.183811,117.558960 72.160812,100.030281 87.034523,82.414398 
	C91.501488,77.123886 95.678925,71.588905 100.453552,66.094795 
	C109.813034,66.023674 118.707962,66.023674 127.638779,66.023674 
	C127.638779,63.379200 127.638779,61.347290 127.638779,58.838390 
	C119.515953,58.838390 111.753876,58.838390 104.058029,58.501732 
	C105.065720,56.630264 105.822418,54.937786 106.977020,53.584892 
	C119.308014,39.136227 131.790283,24.815399 143.997726,10.263742 
	C146.206909,7.630318 147.359573,4.110565 149.000000,1.000000 
	C151.041672,1.000000 153.083328,1.000000 155.562500,1.000000 
	C156.627716,1.657023 157.213730,2.838576 157.889420,2.892314 
	C167.873032,3.686332 175.866318,8.367964 182.735535,15.902468 
	C181.027145,18.335293 179.269867,20.113201 177.661346,22.016830 
	C165.452591,36.465607 153.345093,51.000561 141.065552,65.388771 
	C126.413048,82.557449 111.567299,99.561394 96.950500,116.760124 
	C94.892014,119.182213 93.656792,122.303970 92.040512,125.101868 
z"/>
<path fill="#000000" opacity="1.000000" stroke="none" 
	d="
M257.000000,141.000000 
	C257.000000,179.591003 257.000000,218.182007 257.000000,257.000000 
	C221.312759,257.000000 185.625046,257.000000 149.135590,256.688446 
	C154.846420,254.241974 161.498566,252.452393 167.838364,249.890045 
	C177.029800,246.175171 186.376068,241.012604 188.551620,230.974411 
	C190.839233,220.419327 189.943634,209.174316 190.442047,198.163376 
	C179.896194,198.163376 170.451065,198.163376 160.541229,198.091797 
	C152.379761,198.070114 144.683014,198.120010 136.539124,198.097626 
	C133.853683,198.025345 131.615387,198.025345 129.350983,198.025345 
	C129.350983,195.412094 129.350983,193.259109 129.350983,190.834488 
	C132.469925,190.834488 135.234802,190.834488 138.462845,190.910889 
	C157.612915,190.935059 176.299805,190.882828 195.451050,190.907135 
	C204.226944,190.989166 212.541275,191.129776 220.849213,190.958740 
	C227.892242,190.813736 234.358505,188.838852 239.167313,183.305206 
	C247.958282,173.189148 251.690094,160.889893 254.461868,147.838440 
	C254.887146,145.842072 254.811371,144.033661 255.111832,142.290070 
	C255.201935,141.767120 256.341339,141.424988 257.000000,141.000000 
z"/>
<path fill="#000000" opacity="1.000000" stroke="none" 
	d="
M103.991791,58.838390 
	C111.753876,58.838390 119.515953,58.838390 127.638779,58.838390 
	C127.638779,61.347290 127.638779,63.379200 127.638779,66.023674 
	C118.707962,66.023674 109.813034,66.023674 99.989166,66.033241 
	C89.703911,66.084373 80.347603,66.125938 70.527084,66.103546 
	C60.436337,66.022552 50.779976,65.523880 41.191273,66.117737 
	C30.643225,66.771004 21.556400,70.778465 14.661927,79.509331 
	C6.546963,89.785782 4.937902,101.979477 2.930755,114.186554 
	C2.710306,115.527283 1.663525,116.732132 1.000001,118.000000 
	C1.000000,79.078773 1.000000,40.157547 1.000000,1.000000 
	C34.020519,1.000000 67.041603,1.000000 100.711960,1.392397 
	C97.175362,2.856200 92.957024,3.815962 88.810127,5.021457 
	C79.159187,7.826970 70.108444,12.188354 68.578140,23.174034 
	C66.951889,34.848530 67.071075,46.766167 66.414276,58.831337 
	C72.076553,58.831337 76.534317,58.831337 81.456497,58.902473 
	C89.277870,58.928539 96.634834,58.883465 103.991791,58.838390 
z"/>
<path fill="#FFDA4C" opacity="1.000000" stroke="none" 
	d="
M257.000000,140.531464 
	C256.341339,141.424988 255.201935,141.767120 255.111832,142.290070 
	C254.811371,144.033661 254.887146,145.842072 254.104462,147.877090 
	C252.327789,148.589157 251.143951,148.879120 250.221008,149.535767 
	C233.694366,161.294113 217.166443,173.051468 200.736801,184.944427 
	C198.547165,186.529449 196.890305,188.850433 194.986725,190.830597 
	C176.299805,190.882828 157.612915,190.935059 138.532532,190.581451 
	C138.980469,189.186539 139.664764,187.979385 140.687775,187.242355 
	C150.243637,180.357788 159.834091,173.520523 169.459366,166.733139 
	C193.724396,149.622345 217.980789,132.498871 242.326477,115.503426 
	C245.923355,112.992500 249.986710,111.149765 253.834229,108.997879 
	C254.666245,112.890205 255.498245,116.782524 256.665131,120.337425 
	C257.000000,126.687645 257.000000,133.375290 257.000000,140.531464 
z"/>
<path fill="#FFD43C" opacity="1.000000" stroke="none" 
	d="
M161.005920,198.163376 
	C170.451065,198.163376 179.896194,198.163376 190.442047,198.163376 
	C189.943634,209.174316 190.839233,220.419327 188.551620,230.974411 
	C186.376068,241.012604 177.029800,246.175171 167.838364,249.890045 
	C161.498566,252.452393 154.846420,254.241974 148.666931,256.688446 
	C135.979111,257.000000 122.958214,257.000000 109.468658,257.000000 
	C108.380867,256.336334 107.875938,255.300308 107.123985,255.069672 
	C102.378464,253.614182 97.578156,252.337326 92.472809,250.593994 
	C93.337128,248.850891 94.326271,247.239578 95.742012,246.221451 
	C114.406334,232.798981 133.162308,219.503845 151.810333,206.058914 
	C155.075668,203.704651 157.950653,200.808990 161.005920,198.163376 
M155.645813,217.076874 
	C154.432999,219.826111 152.452850,222.502655 152.183884,225.341324 
	C151.761093,229.803421 156.277863,235.145874 160.109940,235.976608 
	C165.126816,237.064194 171.125992,234.261414 172.974289,229.966446 
	C174.946396,225.383789 173.658676,219.402802 170.097260,216.603577 
	C165.540344,213.021881 161.421463,213.135742 155.645813,217.076874 
z"/>
<path fill="#4786B9" opacity="1.000000" stroke="none" 
	d="
M1.000001,118.468536 
	C1.663525,116.732132 2.710306,115.527283 2.930755,114.186554 
	C4.937902,101.979477 6.546963,89.785782 14.661927,79.509331 
	C21.556400,70.778465 30.643225,66.771004 41.191273,66.117737 
	C50.779976,65.523880 60.436337,66.022552 70.512375,66.455170 
	C70.131226,68.257065 69.474152,69.790909 68.441696,71.005714 
	C61.883770,78.721863 55.192177,86.324463 48.640003,94.045410 
	C34.895153,110.242088 21.237759,126.513145 7.438885,142.663452 
	C6.455223,143.814758 4.611489,144.231216 3.167668,144.989365 
	C2.703285,142.865845 2.238901,140.742325 1.387258,138.809402 
	C1.000000,132.312347 1.000000,125.624710 1.000001,118.468536 
z"/>
<path fill="#4786B9" opacity="1.000000" stroke="none" 
	d="
M80.992081,58.831337 
	C76.534317,58.831337 72.076553,58.831337 66.414276,58.831337 
	C67.071075,46.766167 66.951889,34.848530 68.578140,23.174034 
	C70.108444,12.188354 79.159187,7.826970 88.810127,5.021457 
	C92.957024,3.815962 97.175362,2.856200 101.180618,1.392397 
	C109.354233,1.000000 117.708466,1.000000 126.474838,1.348650 
	C122.258598,7.630664 117.771942,13.682821 112.940994,19.446400 
	C110.586540,22.255379 107.589630,24.525862 104.587601,26.868038 
	C101.328728,21.988367 96.112701,18.815907 92.661827,20.253885 
	C86.468323,22.834713 83.344025,25.053059 83.991173,33.319565 
	C84.357758,38.002113 87.310699,40.978420 92.924561,42.497917 
	C88.901878,48.162308 84.946976,53.496822 80.992081,58.831337 
z"/>
<path fill="#4280B2" opacity="1.000000" stroke="none" 
	d="
M104.883530,27.040096 
	C107.589630,24.525862 110.586540,22.255379 112.940994,19.446400 
	C117.771942,13.682821 122.258598,7.630664 126.943489,1.348650 
	C134.020950,1.000000 141.041901,1.000000 148.531433,1.000000 
	C147.359573,4.110565 146.206909,7.630318 143.997726,10.263742 
	C131.790283,24.815399 119.308014,39.136227 106.977020,53.584892 
	C105.822418,54.937786 105.065720,56.630264 104.058029,58.501732 
	C96.634834,58.883465 89.277870,58.928539 81.456497,58.902473 
	C84.946976,53.496822 88.901878,48.162308 93.337585,42.428917 
	C95.832275,41.578526 98.014153,41.478466 99.829208,40.610939 
	C105.760674,37.775932 105.265274,32.342773 104.883530,27.040096 
z"/>
<path fill="#FFE05C" opacity="1.000000" stroke="none" 
	d="
M253.905472,108.593346 
	C249.986710,111.149765 245.923355,112.992500 242.326477,115.503426 
	C217.980789,132.498871 193.724396,149.622345 169.459366,166.733139 
	C159.834091,173.520523 150.243637,180.357788 140.687775,187.242355 
	C139.664764,187.979385 138.980469,189.186539 138.069366,190.505035 
	C135.234802,190.834488 132.469925,190.834488 129.350983,190.834488 
	C129.350983,193.259109 129.350983,195.412094 129.350983,198.025345 
	C131.615387,198.025345 133.853683,198.025345 136.472076,198.426041 
	C135.728333,199.990112 134.750443,201.356155 133.458694,202.286362 
	C114.747246,215.760803 95.993721,229.176804 77.250275,242.606781 
	C70.351700,236.400024 66.939690,228.657242 66.994789,219.377258 
	C67.017471,215.557571 67.006569,211.737671 67.419167,207.387787 
	C102.631752,182.000381 137.451019,157.163818 172.199814,132.229050 
	C174.088348,130.873886 175.387650,128.697617 176.961227,126.903564 
	C179.747543,124.652618 182.533859,122.401688 185.867584,120.233856 
	C188.495529,119.505821 190.806335,119.036987 192.614319,117.820694 
	C198.527908,113.842415 204.230453,109.552200 210.065201,105.454605 
	C221.729507,97.263039 233.427689,89.119667 245.111893,80.956406 
	C247.737976,88.461357 250.395950,95.955421 252.963257,103.480423 
	C253.478104,104.989494 253.647858,106.616295 253.905472,108.593346 
z"/>
<path fill="#FFE872" opacity="1.000000" stroke="none" 
	d="
M176.585815,126.955063 
	C175.387650,128.697617 174.088348,130.873886 172.199814,132.229050 
	C137.451019,157.163818 102.631752,182.000381 67.497124,206.924911 
	C67.111168,191.852493 66.535675,176.692078 67.140259,161.578873 
	C67.796356,145.177856 82.205437,131.335678 98.386345,131.851456 
	C118.002838,132.476746 137.667145,132.402603 157.283401,131.775406 
	C163.636734,131.572250 169.903854,128.672714 176.585815,126.955063 
z"/>
<path fill="#306998" opacity="1.000000" stroke="none" 
	d="
M189.844406,32.988083 
	C189.894745,54.623703 190.121033,76.260925 189.923828,97.894287 
	C189.819702,109.318054 178.017441,122.550835 166.651611,123.873680 
	C158.462021,124.826836 150.145157,124.821823 141.880341,124.958649 
	C131.896088,125.123940 121.906830,124.987679 111.522141,124.576508 
	C111.838943,122.874023 112.364532,121.418800 113.297623,120.304932 
	C120.735825,111.425560 128.217499,102.581985 135.749969,93.782310 
	C152.322784,74.421417 168.912613,55.074917 185.576141,35.792233 
	C186.646835,34.553268 188.405685,33.909000 189.844406,32.988083 
z"/>
<path fill="#4280B2" opacity="1.000000" stroke="none" 
	d="
M3.243561,145.379608 
	C4.611489,144.231216 6.455223,143.814758 7.438885,142.663452 
	C21.237759,126.513145 34.895153,110.242088 48.640003,94.045410 
	C55.192177,86.324463 61.883770,78.721863 68.441696,71.005714 
	C69.474152,69.790909 70.131226,68.257065 70.976585,66.519119 
	C80.347603,66.125938 89.703911,66.084373 99.524605,66.104362 
	C95.678925,71.588905 91.501488,77.123886 87.034523,82.414398 
	C72.160812,100.030281 57.183811,117.558960 42.245182,135.120026 
	C31.925894,147.250839 21.604589,159.379944 11.118217,171.808624 
	C8.631837,164.260788 6.306726,156.415497 3.997326,148.565582 
	C3.726999,147.646713 3.543308,146.702377 3.243561,145.379608 
z"/>
<path fill="#3772A2" opacity="1.000000" stroke="none" 
	d="
M189.900970,32.577675 
	C188.405685,33.909000 186.646835,34.553268 185.576141,35.792233 
	C168.912613,55.074917 152.322784,74.421417 135.749969,93.782310 
	C128.217499,102.581985 120.735825,111.425560 113.297623,120.304932 
	C112.364532,121.418800 111.838943,122.874023 111.057289,124.508011 
	C104.983040,124.905807 98.976044,124.966675 92.504791,125.064705 
	C93.656792,122.303970 94.892014,119.182213 96.950500,116.760124 
	C111.567299,99.561394 126.413048,82.557449 141.065552,65.388771 
	C153.345093,51.000561 165.452591,36.465607 177.661346,22.016830 
	C179.269867,20.113201 181.027145,18.335293 182.883240,16.203592 
	C185.353149,21.327766 187.655334,26.747517 189.900970,32.577675 
z"/>
<path fill="#FFE872" opacity="1.000000" stroke="none" 
	d="
M245.055054,80.600464 
	C233.427689,89.119667 221.729507,97.263039 210.065201,105.454605 
	C204.230453,109.552200 198.527908,113.842415 192.614319,117.820694 
	C190.806335,119.036987 188.495529,119.505821 186.183228,120.104767 
	C193.364731,111.386139 197.495865,101.725182 197.056366,90.205711 
	C196.758469,82.398155 196.999496,74.570045 196.999496,65.510071 
	C208.228439,66.067581 219.483414,65.720589 230.387634,67.510483 
	C236.838196,68.569313 241.887848,73.948082 245.055054,80.600464 
z"/>
<path fill="#FFDA4C" opacity="1.000000" stroke="none" 
	d="
M77.555412,242.788086 
	C95.993721,229.176804 114.747246,215.760803 133.458694,202.286362 
	C134.750443,201.356155 135.728333,199.990112 136.919220,198.498322 
	C144.683014,198.120010 152.379761,198.070114 160.541229,198.091797 
	C157.950653,200.808990 155.075668,203.704651 151.810333,206.058914 
	C133.162308,219.503845 114.406334,232.798981 95.742012,246.221451 
	C94.326271,247.239578 93.337128,248.850891 92.086548,250.515594 
	C87.302452,248.219620 82.581505,245.594498 77.555412,242.788086 
z"/>
<path fill="#3772A2" opacity="1.000000" stroke="none" 
	d="
M35.236900,190.450256 
	C37.989460,186.061279 40.798279,181.830582 44.071884,177.996750 
	C49.275742,171.902344 54.789711,166.072708 60.499512,160.060547 
	C60.826511,170.082214 60.826511,180.174408 60.826511,190.786560 
	C52.268223,190.786560 43.884945,190.786560 35.236900,190.450256 
z"/>
<path fill="#FFD43C" opacity="1.000000" stroke="none" 
	d="
M195.451050,190.907135 
	C196.890305,188.850433 198.547165,186.529449 200.736801,184.944427 
	C217.166443,173.051468 233.694366,161.294113 250.221008,149.535767 
	C251.143951,148.879120 252.327789,148.589157 253.747589,148.089874 
	C251.690094,160.889893 247.958282,173.189148 239.167313,183.305206 
	C234.358505,188.838852 227.892242,190.813736 220.849213,190.958740 
	C212.541275,191.129776 204.226944,190.989166 195.451050,190.907135 
z"/>
<path fill="#000000" opacity="1.000000" stroke="none" 
	d="
M156.036423,217.029160 
	C161.421463,213.135742 165.540344,213.021881 170.097260,216.603577 
	C173.658676,219.402802 174.946396,225.383789 172.974289,229.966446 
	C171.125992,234.261414 165.126816,237.064194 160.109940,235.976608 
	C156.277863,235.145874 151.761093,229.803421 152.183884,225.341324 
	C152.452850,222.502655 154.432999,219.826111 156.036423,217.029160 
z"/>
<path fill="#000000" opacity="1.000000" stroke="none" 
	d="
M104.587601,26.868040 
	C105.265274,32.342773 105.760674,37.775932 99.829208,40.610939 
	C98.014153,41.478466 95.832275,41.578526 93.405365,42.099037 
	C87.310699,40.978420 84.357758,38.002113 83.991173,33.319565 
	C83.344025,25.053059 86.468323,22.834713 92.661827,20.253885 
	C96.112701,18.815907 101.328728,21.988367 104.587601,26.868040 
z"/>
</svg>